<svg width="24.000000" height="24.000000" viewBox="0 0 24 24" fill="none" xmlns="http://www.w3.org/2000/svg" xmlns:xlink="http://www.w3.org/1999/xlink">
	<desc>
			Created with Pixso.
	</desc>
	<defs>
		<clipPath id="clip1816_1126">
			<rect id="discrord" rx="-0.500000" width="23.000000" height="23.000000" transform="translate(0.500000 0.500000)" fill="white" fill-opacity="0"/>
		</clipPath>
	</defs>
	<rect id="discrord" rx="-0.500000" width="23.000000" height="23.000000" transform="translate(0.500000 0.500000)" fill="#FFFFFF" fill-opacity="0"/>
	<g clip-path="url(#clip1816_1126)">
		<path id="Subtract" d="M22 11.5952C22 6.07227 17.5229 1.59521 12 1.59521C6.47705 1.59521 2 6.07227 2 11.5952C2 17.1182 6.47705 21.5952 12 21.5952C17.5229 21.5952 22 17.1182 22 11.5952ZM13.9712 6.6875C14.9839 6.84326 15.9531 7.11719 16.8594 7.49365C18.4438 9.59521 19.2314 11.9653 18.9404 14.6992C17.728 15.5044 16.5522 15.9932 15.396 16.3125C15.1094 15.9639 14.8564 15.5923 14.6372 15.2026C15.0547 15.062 15.4556 14.8882 15.834 14.6855C15.7349 14.6196 15.6372 14.5508 15.541 14.4795C13.2651 15.4365 10.7622 15.4365 8.4585 14.4795C8.36377 14.5508 8.26611 14.6196 8.16553 14.6855C8.54346 14.8872 8.94287 15.061 9.36035 15.2017C9.14111 15.5923 8.88672 15.9629 8.60156 16.3115C7.44678 15.9922 6.27148 15.5034 5.05908 14.6992C4.81152 12.3413 5.30713 9.94873 7.13477 7.49561C8.04102 7.11816 9.01123 6.84326 10.0254 6.6875C10.1509 6.88721 10.2998 7.15576 10.3999 7.36963Q10.7896 7.31689 11.1816 7.28955Q12.3828 7.20703 13.6011 7.36963C13.7012 7.15576 13.8467 6.88721 13.9712 6.6875ZM8.41553 11.9775C8.41553 12.6758 8.98291 13.249 9.67432 13.249C10.3779 13.249 10.9341 12.6758 10.9331 11.9775C10.9448 11.2783 10.3779 10.7051 9.67432 10.7051C8.9707 10.7051 8.41553 11.2793 8.41553 11.9775ZM13.0669 11.9775C13.0669 12.6758 13.6338 13.249 14.3257 13.249C15.0293 13.249 15.584 12.6758 15.584 11.9775C15.5962 11.2783 15.0293 10.7051 14.3257 10.7051C13.6221 10.7051 13.0669 11.2793 13.0669 11.9775Z" clip-rule="evenodd" fill="#B9BADB" fill-opacity="1.000000" fill-rule="evenodd"/>
	</g>
</svg>
