<svg width="20" height="21" viewBox="0 0 20 21" fill="none" xmlns="http://www.w3.org/2000/svg">
<g clip-path="url(#clip0_1877_134)">
<path fill-rule="evenodd" clip-rule="evenodd" d="M17.5565 0.320312C18.9051 0.320312 20 1.41523 20 2.76383V17.8768C20 19.2254 18.9051 20.3203 17.5565 20.3203H13.3976V12.7846H15.9991L16.4941 9.55719H13.3976V7.46277C13.3976 6.57984 13.8301 5.71918 15.2171 5.71918H16.625V2.97152C16.625 2.97152 15.3473 2.75348 14.1257 2.75348C11.5754 2.75348 9.90852 4.29914 9.90852 7.09738V9.55719H7.07363V12.7846H9.90852V20.3203H2.44352C1.09492 20.3203 0 19.2254 0 17.8768V2.76383C0 1.41523 1.09488 0.320313 2.44352 0.320313H17.5565V0.320312Z" fill="#B9BADB"/>
</g>
<defs>
<clipPath id="clip0_1877_134">
<rect width="20" height="20" fill="white" transform="translate(0 0.320312)"/>
</clipPath>
</defs>
</svg>
