<svg width="24.000000" height="24.000000" viewBox="0 0 24 24" fill="none" xmlns="http://www.w3.org/2000/svg" xmlns:xlink="http://www.w3.org/1999/xlink">
	<desc>
			Created with Pixso.
	</desc>
	<defs>
		<clipPath id="clip1816_1130">
			<rect id="Social Icons" rx="-0.250000" width="23.500000" height="23.500000" transform="translate(0.250000 0.250000)" fill="white" fill-opacity="0"/>
		</clipPath>
	</defs>
	<rect id="Social Icons" rx="-0.250000" width="23.500000" height="23.500000" transform="translate(0.250000 0.250000)" fill="#FFFFFF" fill-opacity="0"/>
	<g clip-path="url(#clip1816_1130)">
		<path id="Vector" d="M22 11.59C22 17.11 17.52 21.59 12 21.59C6.47 21.59 2 17.11 2 11.59C2 6.07 6.47 1.59 12 1.59C17.52 1.59 22 6.07 22 11.59ZM12.35 8.97C11.38 9.38 9.44 10.21 6.52 11.48C6.05 11.67 5.8 11.86 5.78 12.04C5.74 12.34 6.12 12.46 6.64 12.62C6.71 12.65 6.78 12.67 6.86 12.69C7.37 12.86 8.06 13.05 8.41 13.06C8.74 13.07 9.1 12.94 9.5 12.66C12.22 10.82 13.63 9.89 13.72 9.87C13.78 9.86 13.86 9.84 13.92 9.89C13.98 9.95 13.98 10.04 13.97 10.07C13.93 10.23 12.43 11.62 11.66 12.34C11.42 12.57 11.25 12.73 11.21 12.76C11.14 12.84 11.06 12.92 10.98 12.99C10.5 13.45 10.15 13.79 11 14.35C11.41 14.62 11.73 14.85 12.06 15.07C12.41 15.31 12.77 15.55 13.23 15.85C13.35 15.93 13.46 16.01 13.57 16.09C13.98 16.38 14.35 16.65 14.81 16.61C15.08 16.58 15.36 16.33 15.5 15.58C15.83 13.81 16.48 9.97 16.63 8.39C16.64 8.25 16.63 8.08 16.61 8C16.6 7.92 16.57 7.81 16.47 7.73C16.35 7.63 16.17 7.61 16.08 7.61C15.71 7.62 15.13 7.82 12.35 8.97Z" fill="#B9BADB" fill-opacity="1.000000" fill-rule="evenodd"/>
	</g>
</svg>
