<svg width="190.000000" height="32.000000" viewBox="0 0 190 32" fill="none" xmlns="http://www.w3.org/2000/svg" xmlns:xlink="http://www.w3.org/1999/xlink">
	<desc>
			Created with Pixso.
	</desc>
	<defs/>
	<path id="symbol" d="M0.17 18.4C0.06 17.61 0 16.81 0 16C0 7.16 7.16 0 16 0C22.24 0 27.65 3.58 30.29 8.79L24.57 8.79C22.52 6.35 19.44 4.79 16 4.79C10.63 4.79 6.15 8.56 5.05 13.59L31.82 13.59C31.93 14.38 32 15.18 32 16C32 24.83 24.83 32 16 32C9.74 32 4.32 28.4 1.69 23.17L7.32 23.08C8.89 25 11.09 26.39 13.59 26.94L13.59 18.4L0.17 18.4ZM18.4 26.94C22.65 26.01 26.01 22.65 26.94 18.4L18.4 18.4L18.4 26.94Z" fill="#23D4EF" fill-opacity="1.000000" fill-rule="evenodd"/>
	<path id="word" d="M88.24 11.67C92.01 11.67 94.94 14.72 94.94 18.83C94.94 22.95 92.01 26 88.24 26C86.27 26 84.77 25.21 83.74 23.95L83.74 25.65L80.27 25.65L80.27 6L83.74 6L83.74 13.69C84.77 12.46 86.27 11.67 88.24 11.67ZM99.23 10.11C98.07 10.11 97.13 9.2 97.13 8.01C97.13 6.91 98.07 6 99.23 6C100.41 6 101.35 6.91 101.35 8.01C101.35 9.2 100.41 10.11 99.23 10.11ZM170.07 6L173.51 6L173.51 25.65L170.07 25.65L170.07 23.95C169.07 25.19 167.54 26 165.57 26C161.8 26 158.87 22.95 158.87 18.83C158.87 14.72 161.8 11.67 165.57 11.67C167.54 11.67 169.07 12.46 170.07 13.75L170.07 6ZM52.81 26C48.02 26 45.22 23.25 44.5 20.26L47.97 19.21C48.48 21.2 50.26 22.79 53.05 22.79C55.32 22.79 56.69 21.63 56.69 20.4C56.69 19.37 56.02 18.7 54.35 18.13L49.69 16.63C47.26 15.8 45.46 14.28 45.46 11.92C45.46 11.9 45.46 11.88 45.46 11.86C45.46 11.85 45.46 11.84 45.46 11.82C45.46 8.88 48.34 6.45 52.52 6.45C56.55 6.45 59.3 8.61 60.05 11.24L56.66 12.27C56.12 10.71 54.51 9.66 52.33 9.66C50.39 9.66 49.15 10.6 49.15 11.7C49.15 12.59 49.72 13.07 51.17 13.56L55.34 14.96C58.2 15.9 60.38 17.14 60.38 20.15C60.38 23.46 57.33 26 52.81 26ZM132.96 6.8L132.96 10.11L126.6 10.11L126.6 25.65L122.97 25.65L122.97 10.11L116.62 10.11L116.62 6.8L132.96 6.8ZM73.58 13.75L73.58 12.02L77.02 12.02L77.02 25.65L73.58 25.65L73.58 23.95C72.58 25.19 71.04 26 69.08 26C65.31 26 62.38 22.95 62.38 18.83C62.38 14.72 65.31 11.67 69.08 11.67C71.04 11.67 72.58 12.46 73.58 13.75ZM110.81 26C106.61 26 103.54 22.93 103.54 18.83C103.54 14.74 106.61 11.67 110.81 11.67C115.01 11.67 118.08 14.74 118.08 18.83C118.08 22.93 115.01 26 110.81 26ZM153.08 13.75L153.08 12.02L156.52 12.02L156.52 25.65L153.08 25.65L153.08 23.95C152.08 25.19 150.55 26 148.58 26C144.81 26 141.88 22.95 141.88 18.83C141.88 14.72 144.81 11.67 148.58 11.67C150.55 11.67 152.08 12.46 153.08 13.75ZM190 18.65C190 19.1 189.97 19.51 189.91 19.97L179.28 19.97C179.55 21.71 180.82 23.06 183.29 23.06C185.04 23.06 186.09 22.25 186.63 21.23L189.81 22.15C189.03 23.92 186.79 26 183.21 26C178.88 26 175.86 23.14 175.86 18.86C175.86 14.77 178.69 11.67 182.97 11.67C187.41 11.67 190 14.74 190 18.65ZM135.88 12.02L135.88 14.04C136.69 12.48 138.22 11.57 140.38 11.84L140.38 15.15C137.47 14.69 135.88 16.04 135.88 19.72L135.88 25.65L132.36 25.65L132.36 12.02L135.88 12.02ZM100.99 25.65L97.49 25.65L97.49 12.02L100.99 12.02L100.99 25.65ZM182.94 14.64C180.87 14.64 179.5 16.09 179.28 17.62L186.52 17.62C186.36 15.96 185.07 14.64 182.94 14.64ZM87.62 22.87C89.85 22.87 91.47 21.2 91.47 18.81C91.47 16.44 89.85 14.8 87.62 14.8C85.44 14.8 83.72 16.44 83.72 18.81C83.72 21.2 85.44 22.87 87.62 22.87ZM166.17 22.87C168.37 22.87 170.1 21.2 170.1 18.81C170.1 16.44 168.37 14.8 166.17 14.8C163.93 14.8 162.34 16.44 162.34 18.81C162.34 21.2 163.93 22.87 166.17 22.87ZM69.67 22.87C71.88 22.87 73.6 21.2 73.6 18.81C73.6 16.44 71.88 14.8 69.67 14.8C67.44 14.8 65.85 16.44 65.85 18.81C65.85 21.2 67.44 22.87 69.67 22.87ZM149.17 22.87C151.38 22.87 153.1 21.2 153.1 18.81C153.1 16.44 151.38 14.8 149.17 14.8C146.94 14.8 145.35 16.44 145.35 18.81C145.35 21.2 146.94 22.87 149.17 22.87ZM110.81 22.82C113.1 22.82 114.66 21.12 114.66 18.83C114.66 16.55 113.1 14.85 110.81 14.85C108.52 14.85 106.93 16.55 106.93 18.83C106.93 21.12 108.52 22.82 110.81 22.82Z" fill="#FFFFFF" fill-opacity="1.000000" fill-rule="evenodd"/>
</svg>
