<svg width="145.500000" height="20.000000" viewBox="0 0 145.5 20" fill="none" xmlns="http://www.w3.org/2000/svg" xmlns:xlink="http://www.w3.org/1999/xlink">
	<desc>
			Created with Pixso.
	</desc>
	<defs/>
	<path id="word" d="M43.74 5.67C47.51 5.67 50.44 8.72 50.44 12.83C50.44 16.95 47.51 20 43.74 20C41.77 20 40.27 19.21 39.24 17.95L39.24 19.65L35.77 19.65L35.77 0L39.24 0L39.24 7.69C40.27 6.45 41.77 5.67 43.74 5.67ZM54.73 4.11C53.57 4.11 52.63 3.2 52.63 2.01C52.63 0.91 53.57 0 54.73 0C55.91 0 56.85 0.91 56.85 2.01C56.85 3.2 55.91 4.11 54.73 4.11ZM125.57 0L129.01 0L129.01 19.65L125.57 19.65L125.57 17.95C124.57 19.19 123.04 20 121.07 20C117.3 20 114.37 16.95 114.37 12.83C114.37 8.72 117.3 5.67 121.07 5.67C123.04 5.67 124.57 6.45 125.57 7.75L125.57 0ZM8.31 20C3.52 20 0.72 17.25 0 14.26L3.47 13.21C3.98 15.2 5.76 16.79 8.55 16.79C10.82 16.79 12.19 15.63 12.19 14.4C12.19 13.37 11.52 12.7 9.85 12.13L5.19 10.63C2.76 9.8 0.96 8.28 0.96 5.92C0.96 5.9 0.96 5.88 0.96 5.86C0.96 5.85 0.96 5.84 0.96 5.82C0.96 2.88 3.84 0.45 8.02 0.45C12.05 0.45 14.8 2.61 15.55 5.24L12.16 6.27C11.62 4.71 10.01 3.66 7.83 3.66C5.89 3.66 4.65 4.6 4.65 5.7C4.65 6.59 5.22 7.07 6.67 7.56L10.84 8.96C13.7 9.9 15.88 11.14 15.88 14.15C15.88 17.46 12.83 20 8.31 20ZM88.46 0.8L88.46 4.11L82.1 4.11L82.1 19.65L78.47 19.65L78.47 4.11L72.12 4.11L72.12 0.8L88.46 0.8ZM29.08 7.75L29.08 6.02L32.52 6.02L32.52 19.65L29.08 19.65L29.08 17.95C28.08 19.19 26.54 20 24.58 20C20.81 20 17.88 16.95 17.88 12.83C17.88 8.72 20.81 5.67 24.58 5.67C26.54 5.67 28.08 6.45 29.08 7.75ZM66.31 20C62.11 20 59.04 16.93 59.04 12.83C59.04 8.74 62.11 5.67 66.31 5.67C70.51 5.67 73.58 8.74 73.58 12.83C73.58 16.93 70.51 20 66.31 20ZM108.58 7.75L108.58 6.02L112.02 6.02L112.02 19.65L108.58 19.65L108.58 17.95C107.58 19.19 106.05 20 104.08 20C100.31 20 97.38 16.95 97.38 12.83C97.38 8.72 100.31 5.67 104.08 5.67C106.05 5.67 107.58 6.45 108.58 7.75ZM145.5 12.65C145.5 13.1 145.47 13.51 145.41 13.97L134.78 13.97C135.05 15.71 136.32 17.06 138.79 17.06C140.54 17.06 141.59 16.25 142.13 15.23L145.31 16.15C144.53 17.92 142.29 20 138.71 20C134.38 20 131.36 17.14 131.36 12.86C131.36 8.77 134.19 5.67 138.47 5.67C142.91 5.67 145.5 8.74 145.5 12.65ZM91.38 6.02L91.38 8.04C92.19 6.48 93.72 5.57 95.88 5.84L95.88 9.15C92.97 8.69 91.38 10.04 91.38 13.72L91.38 19.65L87.86 19.65L87.86 6.02L91.38 6.02ZM56.49 19.65L52.99 19.65L52.99 6.02L56.49 6.02L56.49 19.65ZM138.44 8.64C136.37 8.64 135 10.09 134.78 11.62L142.02 11.62C141.86 9.95 140.57 8.64 138.44 8.64ZM43.12 16.87C45.35 16.87 46.97 15.2 46.97 12.81C46.97 10.44 45.35 8.8 43.12 8.8C40.94 8.8 39.22 10.44 39.22 12.81C39.22 15.2 40.94 16.87 43.12 16.87ZM121.67 16.87C123.87 16.87 125.6 15.2 125.6 12.81C125.6 10.44 123.87 8.8 121.67 8.8C119.43 8.8 117.84 10.44 117.84 12.81C117.84 15.2 119.43 16.87 121.67 16.87ZM25.17 16.87C27.38 16.87 29.1 15.2 29.1 12.81C29.1 10.44 27.38 8.8 25.17 8.8C22.94 8.8 21.35 10.44 21.35 12.81C21.35 15.2 22.94 16.87 25.17 16.87ZM104.67 16.87C106.88 16.87 108.6 15.2 108.6 12.81C108.6 10.44 106.88 8.8 104.67 8.8C102.44 8.8 100.85 10.44 100.85 12.81C100.85 15.2 102.44 16.87 104.67 16.87ZM66.31 16.82C68.6 16.82 70.16 15.12 70.16 12.83C70.16 10.55 68.6 8.85 66.31 8.85C64.02 8.85 62.43 10.55 62.43 12.83C62.43 15.12 64.02 16.82 66.31 16.82Z" fill="#FFFFFF" fill-opacity="1.000000" fill-rule="evenodd"/>
</svg>
