<svg width="32.000000" height="32.000000" viewBox="0 0 32 32" fill="none" xmlns="http://www.w3.org/2000/svg" xmlns:xlink="http://www.w3.org/1999/xlink">
	<desc>
			Created with Pixso.
	</desc>
	<defs/>
	<path id="symbol" d="M0.17 18.4C0.06 17.61 0 16.81 0 16C0 7.16 7.16 0 16 0C22.24 0 27.65 3.58 30.29 8.79L24.57 8.79C22.52 6.35 19.44 4.79 16 4.79C10.63 4.79 6.15 8.56 5.05 13.59L31.82 13.59C31.93 14.38 32 15.18 32 16C32 24.83 24.83 32 16 32C9.74 32 4.32 28.4 1.69 23.17L7.32 23.08C8.89 25 11.09 26.39 13.59 26.94L13.59 18.4L0.17 18.4ZM18.4 26.94C22.65 26.01 26.01 22.65 26.94 18.4L18.4 18.4L18.4 26.94Z" fill="#23D4EF" fill-opacity="1.000000" fill-rule="evenodd"/>
</svg>
