<svg width="172.902344" height="48.000000" viewBox="0 0 172.902 48" fill="none" xmlns="http://www.w3.org/2000/svg" xmlns:xlink="http://www.w3.org/1999/xlink">
	<desc>
			Created with Pixso.
	</desc>
	<defs>
		<clipPath id="clip1816_914">
			<rect id="chevron-right" width="24.000000" height="24.000000" transform="translate(151.000000 16.000000)" fill="white" fill-opacity="0"/>
		</clipPath>
		<clipPath id="clip1816_910">
			<rect id="Primary Button" rx="23.000000" width="170.902344" height="46.000000" transform="translate(1.000000 1.000000)" fill="white" fill-opacity="0"/>
		</clipPath>
		<linearGradient x1="-2.064491" y1="4.000015" x2="172.902359" y2="31.999969" id="paint_linear_1816_910_0" gradientUnits="userSpaceOnUse">
			<stop stop-color="#1A22FF"/>
			<stop offset="1.000000" stop-color="#484FFF"/>
		</linearGradient>
		<radialGradient gradientTransform="translate(190.369 9.01913) rotate(175.545) scale(104.232 36.1748)" cx="0.000000" cy="0.000000" r="1.000000" id="paint_radial_1816_910_1" gradientUnits="userSpaceOnUse">
			<stop stop-color="#FFFFFF"/>
			<stop offset="1.000000" stop-color="#FFFFFF" stop-opacity="0.000000"/>
		</radialGradient>
		<radialGradient gradientTransform="translate(-13.8222 29.4522) rotate(-3.6202) scale(102.488 56.9886)" cx="0.000000" cy="0.000000" r="1.000000" id="paint_radial_1816_910_2" gradientUnits="userSpaceOnUse">
			<stop stop-color="#FFFFFF"/>
			<stop offset="1.000000" stop-color="#FFFFFF" stop-opacity="0.000000"/>
		</radialGradient>
	</defs>
	<rect id="Primary Button" rx="23.000000" width="170.902344" height="46.000000" transform="translate(1.000000 1.000000)" fill="url(#paint_linear_1816_910_0)" fill-opacity="0"/>
	<g clip-path="url(#clip1816_910)">
		<path id="Arrow 1" d="M26.41 23L30.36 19.04C30.75 18.65 30.75 18.03 30.36 17.63C29.96 17.24 29.34 17.24 28.95 17.63L23.29 23.29C22.89 23.68 22.89 24.31 23.29 24.7L28.95 30.36C29.34 30.75 29.96 30.75 30.36 30.36C30.75 29.96 30.75 29.34 30.36 28.95L26.41 25L148.9 25C149.46 25 149.9 24.55 149.9 24C149.9 23.44 149.46 23 148.9 23L26.41 23Z" fill="#FFFFFF" fill-opacity="1.000000" fill-rule="evenodd"/>
	</g>
	<rect id="Primary Button" rx="23.000000" width="170.902344" height="46.000000" transform="translate(1.000000 1.000000)" stroke="url(#paint_radial_1816_910_1)" stroke-opacity="0.800000" stroke-width="2.000000"/>
	<rect id="Primary Button" rx="23.000000" width="170.902344" height="46.000000" transform="translate(1.000000 1.000000)" stroke="url(#paint_radial_1816_910_2)" stroke-opacity="0.600000" stroke-width="2.000000"/>
	<rect id="Primary Button" rx="23.000000" width="170.902344" height="46.000000" transform="translate(1.000000 1.000000)" stroke="#FFFFFF" stroke-opacity="0" stroke-width="2.000000"/>
</svg>
